<?xml version="1.0" standalone="no"?>
<!DOCTYPE svg PUBLIC "-//W3C//DTD SVG 20010904//EN"
 "http://www.w3.org/TR/2001/REC-SVG-20010904/DTD/svg10.dtd">
<svg version="1.0" xmlns="http://www.w3.org/2000/svg"
 width="512.000000pt" height="512.000000pt" viewBox="0 0 512.000000 512.000000"
 preserveAspectRatio="xMidYMid meet">
<metadata>
Created by potrace 1.14, written by Peter Selinger 2001-2017
</metadata>
<g transform="translate(0.000000,512.000000) scale(0.100000,-0.100000)"
fill="#000000" stroke="none">
<path d="M2398 4955 c-2 -1 -34 -5 -73 -9 -104 -10 -147 -15 -175 -21 -14 -3
-36 -7 -50 -10 -356 -65 -753 -249 -1044 -483 -136 -110 -322 -298 -391 -396
-11 -15 -25 -34 -32 -41 -30 -32 -167 -252 -217 -350 -85 -164 -175 -415 -203
-564 -2 -14 -6 -27 -8 -31 -2 -4 -7 -29 -11 -56 -3 -27 -12 -85 -19 -129 -15
-93 -18 -488 -4 -583 20 -140 38 -238 60 -322 124 -473 377 -881 754 -1215 17
-15 75 -60 130 -101 55 -41 105 -78 110 -82 6 -4 49 -31 97 -60 262 -158 616
-284 893 -317 28 -3 77 -10 110 -14 63 -9 445 -7 505 3 19 3 53 8 76 11 108
15 246 47 366 84 307 95 612 265 858 479 182 158 306 299 437 499 157 238 299
575 338 802 3 19 7 37 9 40 2 3 7 31 11 61 4 30 13 96 20 145 7 55 11 170 9
295 -3 195 -6 238 -20 320 -3 19 -8 49 -11 65 -2 17 -13 68 -24 115 -11 47
-22 92 -24 101 -34 160 -171 470 -286 649 -51 80 -131 192 -149 210 -3 3 -30
34 -60 70 -68 82 -187 200 -265 265 -33 28 -62 52 -65 55 -3 3 -30 23 -60 45
-30 22 -57 42 -60 45 -22 26 -306 183 -420 233 -160 69 -423 146 -557 162 -12
2 -34 6 -50 9 -60 13 -135 18 -315 21 -103 1 -188 1 -190 0z"/>
</g>
</svg>
